# xmcd CD database file
#
# Track frame offsets:
#	150
#	18905
#	35572
#	56340
#	73437
#	98460
#	125122
#	145302
#	164457
#	185312
#
# Disc length: 2792 seconds
#
# Revision: 0
# Processed by: cddbd v1.5.1PL0 Copyright (c) Steve Scherf et al.
# Submitted via: CDex 1.51
#
DISCID=8b0ae60a
DTITLE=米倉利紀 - with you
DYEAR=1900
DGENRE=J-Pop
TTITLE0=music of love
TTITLE1=MANHATTAN, NY....
TTITLE2=girl friend
TTITLE3=ズルイミカタ
TTITLE4=flower
TTITLE5=body and soul three
TTITLE6=恋人
TTITLE7=ありえないっ！
TTITLE8=I was born to love you
TTITLE9=babies' breath
EXTD=
EXTT0=
EXTT1=
EXTT2=
EXTT3=
EXTT4=
EXTT5=
EXTT6=
EXTT7=
EXTT8=
EXTT9=
PLAYORDER=
